PathFileType	4	(X/Y/Z)	pose_F01_0-87.trc
DataRate	CameraRate	NumFrames	NumMarkers	Units	OrigDataRate	OrigDataStartFrame	OrigNumFrames
30	30	6	21	m	30	12	87
Frame#	Time	CHip			RHip			RKnee			RAnkle			RBigToe			RSmallToe			RHeel			LHip			LKnee			LAnkle			LBigToe			LSmallToe			LHeel			Neck			Nose			RShoulder			RElbow			RWrist			LShoulder			LElbow			LWrist			
		X1	Y1	Z1	X2	Y2	Z2	X3	Y3	Z3	X4	Y4	Z4	X5	Y5	Z5	X6	Y6	Z6	X7	Y7	Z7	X8	Y8	Z8	X9	Y9	Z9	X10	Y10	Z10	X11	Y11	Z11	X12	Y12	Z12	X13	Y13	Z13	X14	Y14	Z14	X15	Y15	Z15	X16	Y16	Z16	X17	Y17	Z17	X18	Y18	Z18	X19	Y19	Z19	X20	Y20	Z20	X21	Y21	Z21	
12	0.4	-0.2303717170690552	1.8371724072360638	-0.5472735135964443	-0.2482413421555063	1.8344082935552295	-0.48807034562417645	-0.2520824260776379	1.6941059457388163	-0.47370062223056236				-0.23013690471919018	1.5431238589551985	-0.5940767043332305							-0.2164688125023973	1.8424847298741078	-0.6136797072329645	-0.22285508227390033	1.7052298872063847	-0.6158167644781253	-0.21392786276982093	1.5659516162789304	-0.6073124658754016	-0.2312615365567481	1.5339867843034314	-0.6557667013828848	-0.21777876045024055	1.5405472272992793	-0.6694780497874163	-0.21090688287545958	1.5551157206306498	-0.5876631766693006	-0.22438142176444767	1.9989574276628237	-0.5683568038732204	-0.23241230018376352	2.075196547314467	-0.6123962730315952	-0.248094400241303	1.9980479549033934	-0.48678961921748454	-0.2704461490493767	1.9340056137183639	-0.5096355179217225	-0.8797457129034819	1.9477254681919542	0.05614785190966165	-0.19921732532899655	2.003258822122165	-0.6444398860144138	-1.2944871621648428	1.8453970084300513	0.4070523400803137	-0.2282278240258376	2.0111085072454413	-0.6785902419336323
13	0.43333333333333335	-0.2339603348425096	1.836246197096496	-0.5391904619875082	-0.2496010353911328	1.832653415344937	-0.4820709542715048	-0.2520824260776379	1.6941059457388163	-0.47370062223056236				-0.23013690471919018	1.5431238589551985	-0.5940767043332305							-0.215279080553397	1.8394076131714214	-0.5981746700648662	-0.22114356893607875	1.7034027065262982	-0.6087274496642718	-0.20811675366439908	1.5800450369802241	-0.5752285669701086	-0.21932460672023768	1.54396111786058	-0.6254985112850077	-0.20954355809777722	1.5532768836536746	-0.6398490494378779	-0.21014288373721476	1.576972413525286	-0.560181557703972	-0.22753132519774738	1.9968543292848813	-0.5602763978369675	-0.22880387736453914	2.074504735308616	-0.6089707384076981	-0.2501787158784461	1.9962964687546707	-0.47611160447971157	-0.26735432869214354	1.9248493002056384	-0.48160027275790657	-1.5083238428068138	1.8732523498820388	0.7203530898445952	-0.19955819835286173	1.9977736131833597	-0.6347851815047404	-1.3059882110141527	1.8429744214663049	0.4508553558547194	-0.20908663593634405	1.978728452186139	-0.7025869512971482
14	0.4666666666666667	-0.23381044951998384	1.8346895518599298	-0.5389741700623943	-0.24865789120652843	1.8326130863118768	-0.47876893513226126	-0.25205662186200833	1.6970559395728257	-0.47394222480255177				-0.23013690471919018	1.5431238589551985	-0.5940767043332305							-0.21321129388573354	1.8387608785518366	-0.600252402029999	-0.2189258277535896	1.7062867345310149	-0.5941406188721242	-0.20249180722784618	1.5900136731031003	-0.5517038693360095	-0.21400794190513783	1.5562009337557987	-0.6021272675737502	-0.20150395472971233	1.5639307503022624	-0.619525177379773	-0.2064158782546822	1.5922831134595348	-0.5396721493104929	-0.22761588148029227	1.9947179325290547	-0.5513149628904034	-0.22892196273027995	2.0744287148800193	-0.6007171550609683	-0.2512027461355756	1.9938615241865576	-0.4701147598833342	-0.2687096977855998	1.9169929491620783	-0.44924549692289956	-1.502098479350041	1.864351577462974	0.7185455741304366	-0.19670264621907246	1.996235263686054	-0.6340817576891408	-0.18471452039433028	1.9319250313305179	-0.6974844376509692	-0.2022028547307478	1.9639145528060054	-0.6952150908326917
15	0.5	-0.231748623023545	1.834635060130868	-0.5411073323148134	-0.2485442234502035	1.8327926055889874	-0.47877301158941526	-0.25203081764637875	1.7000059334068351	-0.47418382737454123				-0.23013690471919018	1.5431238589551985	-0.5940767043332305							-0.213006519667277	1.8372719040058898	-0.6001174508733005	-0.21299288286282655	1.7084322647945112	-0.5835673898469366	-0.1999437553856378	1.6005409785735722	-0.5425214173252297	-0.20492735629735254	1.5629681905089414	-0.5861065351256434	-0.19459930588091356	1.5720891069072167	-0.5978086924941202	-0.20218090338372025	1.6018102783594532	-0.5148368130281882	-0.22380965287862006	1.9917563900297206	-0.546702443815141	-0.22590991989968318	2.074565273210191	-0.5906996503270211	-0.25006817508357565	1.9905350164415603	-0.46596500951372716	-0.2695166043947867	1.914746249591331	-0.4346018958554209	-0.2549148965982635	1.939223220949641	-0.5660248378607364	-0.19682770096970276	1.9925119488339857	-0.6337272912337468	-0.17890087375856267	1.9246080171021638	-0.6861869176663076	-1.3679091514254544	1.8517040160276867	0.5192814568941286
16	0.5333333333333333	-0.227791204789388	1.8352899484276262	-0.5368599914484479	-0.24434928815741266	1.8340160541027726	-0.47455685908811046	-0.2503324585470159	1.6998682370104257	-0.47455988914399316				-0.23013690471919018	1.5431238589551985	-0.5940767043332305							-0.212114826526258	1.8386847126405546	-0.5969161418161284	-0.20795448804363587	1.7110922014924648	-0.5673708844556262	-0.19340551101631687	1.5977719400329764	-0.5368974865007847	-0.20233478959998177	1.5663136742223462	-0.5894608455574263	-0.19091775089533386	1.5748510282036214	-0.5979206010690471	-0.1994730717760167	1.6031787100300305	-0.5190690639854015	-0.22070816715201338	1.9859372728012041	-0.5447011500505535	-0.22230654539559064	2.069823036894348	-0.586474794305717	-0.24596018932640007	1.9878811281538347	-0.4609088207289443	-0.26749571987329207	1.9136471683391885	-0.4047462161903665	-0.2510764982206547	1.924216637536148	-0.551062508389712	-0.1945980612296211	1.990147939508487	-0.6350712101244284	-0.16748317803415044	1.9303442129665733	-0.6649453254923082	-1.3721513052134138	1.8430133707278946	0.5487558596555141
17	0.5666666666666667	-0.22461029957365686	1.8387915667703734	-0.5361713134395759	-0.24126379424202637	1.8368757472932855	-0.4738902025308749	-0.2486340994476531	1.6997305406140162	-0.47493595091344515				-0.23013690471919018	1.5431238589551985	-0.5940767043332305							-0.20801265122372575	1.8408386250649942	-0.5930193291394028	-0.20357925680396216	1.710915895353112	-0.5633047107907572	-0.19279525829871197	1.5974640675250422	-0.5352104291530893	-0.2023689009107819	1.5696023384928188	-0.5902542431908564	-0.19055159672685423	1.5788852253471748	-0.5992190822064343	-0.1956109777704262	1.6047285539827245	-0.5234119319320006	-0.21658711234851927	1.9865574798955827	-0.5490621499525488	-0.21852032994233406	2.0651532042193286	-0.5818216285708222	-0.2422454835344228	1.9849669632521272	-0.4654486553263019	-0.2623981010082293	1.9133200633344014	-0.3885525016420638	-0.2507877500197118	1.9187293800716636	-0.5298095163686692	-0.1914936116649801	1.9891983230635435	-0.6340417455299576	-0.1600378134869441	1.9248029377415001	-0.6586535833902053	-0.20312101811260438	1.9220371275596149	-0.6519509799310234
